<?xml version="1.0" standalone="no"?>
<!DOCTYPE svg PUBLIC "-//W3C//DTD SVG 20010904//EN"
 "http://www.w3.org/TR/2001/REC-SVG-20010904/DTD/svg10.dtd">
<svg version="1.0" xmlns="http://www.w3.org/2000/svg"
 width="512.000000pt" height="512.000000pt" viewBox="0 0 512.000000 512.000000"
 preserveAspectRatio="xMidYMid meet">

<g transform="translate(0.000000,512.000000) scale(0.100000,-0.100000)"
fill="#15dbff" stroke="none">
<path d="M2275 4854 c-973 -132 -1778 -888 -1964 -1846 -175 -897 224 -1817
1015 -2338 535 -353 1200 -461 1813 -294 896 243 1582 1036 1691 1954 14 120
14 390 0 511 -125 1047 -986 1902 -2035 2019 -124 14 -399 11 -520 -6z m503
-275 c929 -101 1645 -801 1767 -1727 19 -145 19 -389 0 -534 -133 -1011 -968
-1739 -1994 -1738 -447 0 -881 148 -1236 419 -142 108 -323 304 -433 468 -102
151 -207 382 -256 563 -176 649 -39 1320 372 1831 70 87 232 245 317 310 229
176 516 310 788 370 203 45 472 61 675 38z"/>
<path d="M2483 3731 c-64 -40 -63 -32 -63 -540 l0 -460 -462 -3 c-424 -3 -466
-5 -496 -21 -100 -55 -94 -200 11 -247 39 -18 70 -20 495 -20 l452 0 0 -462
c0 -442 1 -464 20 -495 57 -94 202 -80 246 24 11 26 14 124 14 483 l0 450 443
0 c269 0 456 4 479 10 20 6 50 26 67 46 27 30 31 43 31 89 0 46 -4 59 -31 89
-17 20 -47 40 -67 46 -23 6 -210 10 -479 10 l-443 0 0 450 c0 486 0 490 -54
539 -36 34 -118 40 -163 12z"/>
</g>
</svg>
