<?xml version="1.0" standalone="no"?>
<!DOCTYPE svg PUBLIC "-//W3C//DTD SVG 20010904//EN"
 "http://www.w3.org/TR/2001/REC-SVG-20010904/DTD/svg10.dtd">
<svg version="1.0" xmlns="http://www.w3.org/2000/svg"
 width="708.000000pt" height="400.000000pt" viewBox="0 0 708.000000 400.000000"
 preserveAspectRatio="xMidYMid meet">

<g transform="translate(0.000000,400.000000) scale(0.100000,-0.100000)"
fill="#15dbff" stroke="none">
<path d="M4185 2910 l-650 -650 -645 645 -645 645 -115 -115 -115 -115 645
-645 645 -645 -640 -640 -640 -640 118 -117 117 -118 640 640 640 640 648
-648 647 -647 115 115 115 115 -648 648 -647 647 645 645 c355 355 645 650
645 655 0 6 -51 61 -113 123 l-112 112 -650 -650z"/>
</g>
</svg>
