<?xml version="1.0" standalone="no"?>
<!DOCTYPE svg PUBLIC "-//W3C//DTD SVG 20010904//EN"
 "http://www.w3.org/TR/2001/REC-SVG-20010904/DTD/svg10.dtd">
<svg version="1.0" xmlns="http://www.w3.org/2000/svg"
 width="840.000000pt" height="859.000000pt" viewBox="0 0 840.000000 859.000000"
 preserveAspectRatio="xMidYMid meet">

<g transform="translate(0.000000,859.000000) scale(0.100000,-0.100000)"
fill="#15dbff" stroke="none">
<path d="M4055 8052 c-116 -86 -289 -215 -385 -287 -96 -71 -242 -179 -325
-240 -139 -104 -1694 -1257 -2559 -1899 -208 -155 -462 -343 -565 -419 -102
-76 -187 -140 -188 -141 -1 -1 59 -84 133 -184 l136 -182 52 37 c28 21 173
128 321 238 149 110 396 294 550 408 154 114 488 361 742 550 254 188 528 391
610 452 426 316 1520 1127 1601 1187 92 69 93 69 118 53 23 -15 692 -497 1124
-810 161 -116 834 -603 1620 -1170 250 -181 520 -376 600 -433 80 -58 217
-157 305 -220 88 -63 165 -119 172 -124 8 -6 47 43 132 165 66 95 121 178 123
184 2 6 -126 105 -284 219 -1660 1208 -3373 2456 -3627 2642 -100 72 -185 132
-189 132 -4 -1 -102 -71 -217 -158z"/>
<path d="M1354 5061 c-2 -2 -4 -1054 -4 -2338 l0 -2333 2910 0 2910 0 0 2325
0 2325 -225 0 -225 0 -2 -2097 -3 -2098 -582 -3 -583 -2 0 1965 0 1965 -1300
0 -1300 0 0 -1965 0 -1965 -570 0 -570 0 -2 2113 -3 2112 -223 0 c-123 0 -225
-2 -228 -4z m3736 -2486 l0 -1735 -840 0 -840 0 0 1735 0 1735 840 0 840 0 0
-1735z"/>
</g>
</svg>
